<svg id="Layer_1" data-name="Layer 1" xmlns="http://www.w3.org/2000/svg" viewBox="0 0 283.46 283.46"><defs><style>.cls-1{fill:#7fbf73;}</style></defs><title>CORONtine_icon</title><path class="cls-1" d="M132.93,406.6c0-20.17-.05-40.34,0-60.51,0-7.62,3.65-13.58,11.21-17.45q59.15-30.28,118.31-60.54a25.37,25.37,0,0,1,24.27,0Q346.1,298.4,405.4,328.81c7.19,3.7,10.91,9.51,10.92,16.86q.1,60.88,0,121.77c0,7.48-3.68,13.39-11.07,17.18q-59.47,30.5-119,60.9a24.23,24.23,0,0,1-23.11,0q-59.55-30.4-119-60.9C136.68,480.85,133,475,133,467.49,132.86,447.2,132.93,426.9,132.93,406.6ZM247.66,355c0,6.07,0,12.13,0,18.19,0,6.7-3.4,9.64-11.1,9.65-13.7,0-27.4,0-41.1,0-6.9,0-10.63,3.23-10.67,9.33q-.1,14.1,0,28.21c.05,7,3.7,10.18,11.59,10.19,13.43,0,26.85,0,40.27,0,7.8,0,11,2.81,11,9.65,0,11.88,0,23.76,0,35.63,0,7.14,3.61,10.32,11.82,10.35q15.51.06,31,0c7.45,0,11.08-3.23,11.09-9.75,0-12,0-24,0-36,0-7,3.28-9.86,11.29-9.88,13.56,0,27.12,0,40.68,0,7.2,0,10.86-3.19,10.9-9.56q.09-14.28,0-28.58c0-6.35-3.69-9.57-10.81-9.58-13.7,0-27.4,0-41.1,0-7.6,0-10.95-3-11-9.76,0-12.25,0-24.5,0-36.75,0-5.8-3.51-9.05-10-9.1q-17-.15-34,0c-6.32.07-9.86,3.31-9.91,8.85C247.62,342.34,247.66,348.65,247.66,355Z" transform="translate(-132.91 -265)"/></svg>